<svg width="16" height="17" viewBox="0 0 16 17" fill="none" xmlns="http://www.w3.org/2000/svg">
<path d="M3.16835 14.5682H13.0304C13.2496 14.5682 13.4597 14.4787 13.6147 14.3193C13.7697 14.16 13.8567 13.9439 13.8567 13.7185L14.3717 6.81701C14.3716 6.59174 14.2845 6.37575 14.1295 6.21651C13.9746 6.05727 13.7645 5.96781 13.5454 5.96781H7.28036C7.12078 5.96782 6.96461 5.92031 6.83072 5.83103C6.69683 5.74175 6.59095 5.61451 6.52586 5.46469C6.46093 5.31467 6.35511 5.18722 6.22121 5.09775C6.0873 5.00829 5.93105 4.96064 5.77136 4.96057H2.65336C2.54485 4.96057 2.4374 4.98255 2.33715 5.02525C2.23691 5.06795 2.14582 5.13054 2.0691 5.20945C1.99237 5.28835 1.93152 5.38202 1.89001 5.48511C1.84849 5.5882 1.82713 5.69868 1.82715 5.81026L2.34214 13.7181C2.34208 13.8298 2.3634 13.9403 2.40489 14.0434C2.44639 14.1465 2.50723 14.2403 2.58396 14.3192C2.66069 14.3981 2.75179 14.4608 2.85206 14.5035C2.95233 14.5462 3.05981 14.5682 3.16835 14.5682Z" fill="#FFC247" stroke="#FFA426" stroke-width="0.5"/>
<path d="M3.12061 0.657319V11.9616C3.12064 12.1359 3.18801 12.3031 3.30792 12.4264C3.42782 12.5496 3.59043 12.6189 3.75998 12.6189H12.4574C12.627 12.6189 12.7896 12.5496 12.9095 12.4264C13.0294 12.3031 13.0968 12.1359 13.0968 11.9616V2.7877L10.3856 1.17632e-08H3.75998C3.67602 -1.63202e-05 3.59288 0.0169739 3.51531 0.0499999C3.43774 0.083026 3.36725 0.131441 3.30788 0.192481C3.24851 0.25352 3.20141 0.325988 3.16928 0.405745C3.13714 0.485503 3.12061 0.570988 3.12061 0.657319Z" fill="#AECFF0"/>
<path d="M10.3853 0L13.0964 2.7877H11.0033C10.8394 2.7877 10.6822 2.72074 10.5663 2.60155C10.4504 2.48236 10.3853 2.3207 10.3853 2.15214V0Z" fill="#4A98F7"/>
<path d="M11.2743 7.4093H4.94259C4.89717 7.4093 4.86035 7.44716 4.86035 7.49386V7.64234C4.86035 7.68904 4.89717 7.72689 4.94259 7.72689H11.2743C11.3197 7.72689 11.3565 7.68904 11.3565 7.64234V7.49386C11.3565 7.44716 11.3197 7.4093 11.2743 7.4093Z" fill="#4A98F7"/>
<path d="M11.2743 6.6189H4.94259C4.89717 6.6189 4.86035 6.65675 4.86035 6.70346V6.85193C4.86035 6.89863 4.89717 6.93649 4.94259 6.93649H11.2743C11.3197 6.93649 11.3565 6.89863 11.3565 6.85193V6.70346C11.3565 6.65675 11.3197 6.6189 11.2743 6.6189Z" fill="#4A98F7"/>
<path d="M11.2743 9.0061H4.94259C4.89717 9.0061 4.86035 9.04396 4.86035 9.09066V9.23914C4.86035 9.28584 4.89717 9.32369 4.94259 9.32369H11.2743C11.3197 9.32369 11.3565 9.28584 11.3565 9.23914V9.09066C11.3565 9.04396 11.3197 9.0061 11.2743 9.0061Z" fill="#F2F2F2"/>
<path d="M11.2743 9.79651H4.94259C4.89717 9.79651 4.86035 9.83437 4.86035 9.88107V10.0295C4.86035 10.0762 4.89717 10.1141 4.94259 10.1141H11.2743C11.3197 10.1141 11.3565 10.0762 11.3565 10.0295V9.88107C11.3565 9.83437 11.3197 9.79651 11.2743 9.79651Z" fill="#F2F2F2"/>
<path d="M11.2743 8.2157H4.94259C4.89717 8.2157 4.86035 8.25356 4.86035 8.30026V8.44873C4.86035 8.49543 4.89717 8.53329 4.94259 8.53329H11.2743C11.3197 8.53329 11.3565 8.49543 11.3565 8.44873V8.30026C11.3565 8.25356 11.3197 8.2157 11.2743 8.2157Z" fill="#4A98F7"/>
<path d="M9.9082 2.50488H4.94259C4.89717 2.50488 4.86035 2.54274 4.86035 2.58944V2.73792C4.86035 2.78462 4.89717 2.82248 4.94259 2.82248H9.9082C9.95362 2.82248 9.99043 2.78462 9.99043 2.73792V2.58944C9.99043 2.54274 9.95362 2.50488 9.9082 2.50488Z" fill="#4A98F7"/>
<path d="M9.9082 1.7146H4.94259C4.89717 1.7146 4.86035 1.75246 4.86035 1.79916V1.94763C4.86035 1.99433 4.89717 2.03219 4.94259 2.03219H9.9082C9.95362 2.03219 9.99043 1.99433 9.99043 1.94763V1.79916C9.99043 1.75246 9.95362 1.7146 9.9082 1.7146Z" fill="#4A98F7"/>
<path d="M11.1704 3.31836H5.04647C4.94368 3.31836 4.86035 3.40404 4.86035 3.50974V5.99377C4.86035 6.09947 4.94368 6.18515 5.04647 6.18515H11.1704C11.2732 6.18515 11.3565 6.09947 11.3565 5.99377V3.50974C11.3565 3.40404 11.2732 3.31836 11.1704 3.31836Z" fill="#4A98F7"/>
<path d="M13.6507 16.0911H2.53482C2.3377 16.0911 2.14707 16.0099 1.99735 15.8621C1.84764 15.7143 1.7487 15.5096 1.7184 15.2851L0.88288 10.0982C0.86454 9.9624 0.871915 9.82363 0.904497 9.69143C0.93708 9.55922 0.994098 9.4367 1.07164 9.33229C1.14918 9.22789 1.2454 9.14406 1.3537 9.08656C1.462 9.02907 1.57982 8.99927 1.69905 8.99922H5.33441C5.49398 8.99919 5.65013 8.94592 5.78402 8.84584C5.9179 8.74576 6.02379 8.60315 6.0889 8.43522C6.15395 8.26726 6.25981 7.12461 6.39368 7.0245C6.52755 6.92439 6.68371 6.87111 6.84328 6.87109H14.5179C14.6359 6.87112 14.7524 6.90025 14.8598 6.95653C14.9672 7.0128 15.0629 7.09492 15.1404 7.19737C15.218 7.29981 15.2756 7.42021 15.3095 7.55046C15.3433 7.68071 15.3526 7.8178 15.3366 7.95252L14.4695 15.2677C14.4425 15.4958 14.3446 15.705 14.194 15.8564C14.0435 16.0077 13.8505 16.0911 13.6507 16.0911Z" fill="#FFC247" stroke="#FFA426" stroke-width="0.5"/>
</svg>
