<svg width="31" height="31" viewBox="0 0 31 31" fill="none" xmlns="http://www.w3.org/2000/svg">
<path d="M30.3571 15.4286C30.3571 23.6734 23.6734 30.3571 15.4286 30.3571C7.18375 30.3571 0.5 23.6734 0.5 15.4286C0.5 7.18375 7.18375 0.5 15.4286 0.5C23.6734 0.5 30.3571 7.18375 30.3571 15.4286Z" fill="white" stroke="#381DDB"/>
<path d="M19.3016 11.8279H17.2874V13.0231H19.3016C19.9008 13.0231 20.3656 13.3289 20.3656 13.5923V19.7497C20.3656 20.0129 19.9008 20.319 19.3016 20.319H11.6877C11.0887 20.319 10.624 20.0129 10.624 19.7497V13.5929C10.624 13.3295 11.0887 13.0235 11.6877 13.0235H13.7017V11.8283H11.6877C10.421 11.8283 9.42871 12.6034 9.42871 13.5929V19.7499C9.42871 20.7396 10.421 21.5143 11.6877 21.5143H19.302C20.5684 21.5143 21.561 20.7392 21.561 19.7499V13.5929C21.5608 12.603 20.5686 11.8279 19.3016 11.8279Z" fill="#381DDB"/>
<path d="M13.7326 10.6851C13.8855 10.6858 14.0386 10.6279 14.1559 10.5117L14.9075 9.76712L14.8956 12.3622L14.8901 13.5574L14.8796 15.8473C14.8781 16.1771 15.1444 16.4461 15.4745 16.4476C15.8045 16.4491 16.0733 16.1826 16.0748 15.8528L16.0853 13.5631L16.0908 12.3679L16.1029 9.73237L16.888 10.5244C17.0042 10.6417 17.1569 10.701 17.3097 10.7017C17.4625 10.7024 17.6157 10.6445 17.733 10.5283C17.9675 10.2963 17.9693 9.91784 17.7369 9.6835L15.9608 7.89102C15.8446 7.77375 15.6919 7.71508 15.5393 7.71438C15.5377 7.71437 15.5361 7.71436 15.5347 7.71436C15.5333 7.71435 15.5317 7.71434 15.5303 7.71434C15.3773 7.71363 15.2245 7.7709 15.1072 7.8871L13.3147 9.66318C13.0802 9.89538 13.0785 10.2739 13.3108 10.508C13.427 10.6251 13.5794 10.6843 13.7326 10.6851Z" fill="#381DDB"/>
</svg>
