<svg width="30" height="85" viewBox="0 0 30 85" fill="none" xmlns="http://www.w3.org/2000/svg">
<path d="M29.5 15C29.5 23.0081 23.0081 29.5 15 29.5C6.99187 29.5 0.5 23.0081 0.5 15C0.5 6.99187 6.99187 0.5 15 0.5C23.0081 0.5 29.5 6.99187 29.5 15Z" fill="white" stroke="#381DDB"/>
<path d="M8.33331 10.3124C8.33331 9.67965 8.84629 9.16667 9.47909 9.16667H20.1505C20.7833 9.16667 21.2963 9.67965 21.2963 10.3124V10.3124C21.2963 10.6163 21.1756 10.9078 20.9607 11.1226L16.4352 15.6481V20.5093H13.1944V15.6481L8.6689 11.1226C8.45403 10.9078 8.33331 10.6163 8.33331 10.3124V10.3124Z" fill="white" stroke="#381DDB" stroke-width="1.5" stroke-linejoin="round"/>
<path fill-rule="evenodd" clip-rule="evenodd" d="M15 85C23.2843 85 30 78.2843 30 70C30 61.7157 23.2843 55 15 55C6.71573 55 0 61.7157 0 70C0 78.2843 6.71573 85 15 85Z" fill="#0C56C9"/>
<path d="M8.33331 65.3124C8.33331 64.6796 8.84629 64.1667 9.47909 64.1667H20.1505C20.7833 64.1667 21.2963 64.6796 21.2963 65.3124V65.3124C21.2963 65.6163 21.1756 65.9077 20.9607 66.1226L16.4352 70.6481V75.5093H13.1944V70.6481L8.6689 66.1226C8.45403 65.9077 8.33331 65.6163 8.33331 65.3124V65.3124Z" fill="#0C56C9" stroke="white" stroke-width="1.5" stroke-linejoin="round"/>
</svg>
