<svg width="31" height="31" viewBox="0 0 31 31" fill="none" xmlns="http://www.w3.org/2000/svg">
<path fill-rule="evenodd" clip-rule="evenodd" d="M15.4286 30.8571C23.9495 30.8571 30.8571 23.9495 30.8571 15.4286C30.8571 6.90761 23.9495 0 15.4286 0C6.90761 0 0 6.90761 0 15.4286C0 23.9495 6.90761 30.8571 15.4286 30.8571Z" fill="#0C56C9"/>
<path fill-rule="evenodd" clip-rule="evenodd" d="M15.4287 8.30354C14.6299 8.30354 13.9823 8.95113 13.9823 9.74997L13.9823 14.3835H9.34876C8.54992 14.3835 7.90233 15.0311 7.90233 15.8299C7.90233 16.6288 8.54992 17.2764 9.34876 17.2764L13.9823 17.2764L13.9823 21.9099C13.9823 22.7087 14.6299 23.3563 15.4287 23.3563C16.2276 23.3563 16.8751 22.7087 16.8751 21.9099L16.8751 17.2764L21.5087 17.2764C22.3075 17.2764 22.9551 16.6288 22.9551 15.8299C22.9551 15.0311 22.3075 14.3835 21.5087 14.3835H16.8751L16.8751 9.74997C16.8751 8.95113 16.2276 8.30354 15.4287 8.30354Z" fill="white"/>
</svg>
