<svg width="12" height="12" viewBox="0 0 12 12" fill="none" xmlns="http://www.w3.org/2000/svg">
<path d="M10.9982 9.67284L6.95193 5.6303L10.9982 1.58776C11.3608 1.22518 11.3608 0.636668 10.9992 0.273106C10.6356 -0.0913475 10.0471 -0.0904102 9.68361 0.272168L5.63549 4.31658L1.58737 0.272168C1.22385 -0.0904103 0.635334 -0.0913476 0.271817 0.273106C-0.0907615 0.636621 -0.090762 1.22514 0.272754 1.58776L4.31905 5.6303L0.272754 9.67284C-0.090762 10.0354 -0.0907615 10.6239 0.271817 10.9875C0.45313 11.1697 0.692052 11.2599 0.930084 11.2599C1.16812 11.2599 1.4061 11.1688 1.58741 10.9884L5.63554 6.94397L9.68366 10.9884C9.86497 11.1697 10.103 11.2599 10.341 11.2599C10.579 11.2599 10.8179 11.1688 10.9993 10.9875C11.3617 10.6239 11.3617 10.0354 10.9982 9.67284Z" fill="#FF7327"/>
</svg>
