
<svg width="16px" height="13px" viewBox="0 0 16 13" version="1.1" xmlns="http://www.w3.org/2000/svg" xmlns:xlink="http://www.w3.org/1999/xlink">
    <g id="Page-1" stroke="none" stroke-width="1" fill="none" fill-rule="evenodd">
        <g id="client" fill="#7BB0FF" fill-rule="nonzero">
            <path d="M8,2.5 C8,3.88071 6.88071,5 5.5,5 C4.11929,5 3,3.88071 3,2.5 C3,1.11929 4.11929,0 5.5,0 C6.88071,0 8,1.11929 8,2.5 Z" id="Path"></path>
            <path d="M3,7 C1.34315,7 0,8.34315 0,10 L0,13 L8,13 L8,7 L3,7 Z" id="Path"></path>
            <path d="M13,7 L10,7 L10,13 L16,13 L16,10 C16,8.34315 14.6569,7 13,7 Z" id="Path"></path>
            <path d="M12,5 C13.1046,5 14,4.10457 14,3 C14,1.89543 13.1046,1 12,1 C10.8954,1 10,1.89543 10,3 C10,4.10457 10.8954,5 12,5 Z" id="Path"></path>
        </g>
    </g>
</svg>