<svg width="35" height="35" viewBox="0 0 35 35" fill="none" xmlns="http://www.w3.org/2000/svg">
<path d="M34.625 17.5C34.625 26.9579 26.9579 34.625 17.5 34.625C8.04212 34.625 0.375 26.9579 0.375 17.5C0.375 8.04212 8.04212 0.375 17.5 0.375C26.9579 0.375 34.625 8.04212 34.625 17.5Z" fill="white" stroke="#381DDB" stroke-width="0.75"/>
<path fill-rule="evenodd" clip-rule="evenodd" d="M11.8397 11.8397C11.3759 12.3034 11.3759 13.0553 11.8397 13.5191L16.0157 17.6951L11.8397 21.8711C11.3759 22.3348 11.3759 23.0867 11.8397 23.5505V23.5505C12.3034 24.0142 13.0553 24.0142 13.5191 23.5505L17.6951 19.3745L21.8711 23.5505C22.3348 24.0142 23.0867 24.0142 23.5505 23.5505V23.5505C24.0142 23.0867 24.0142 22.3348 23.5505 21.8711L19.3745 17.6951L23.5505 13.5191C24.0142 13.0553 24.0142 12.3034 23.5505 11.8397V11.8397C23.0867 11.3759 22.3348 11.3759 21.8711 11.8397L17.6951 16.0157L13.5191 11.8397C13.0553 11.3759 12.3034 11.3759 11.8397 11.8397V11.8397Z" fill="#381DDB"/>
</svg>
