<svg width="18" height="18" viewBox="0 0 18 18" fill="none" xmlns="http://www.w3.org/2000/svg">
<path d="M13.5 0.75H4.5C2.43225 0.75 0.75 2.43225 0.75 4.5V10.5C0.75 12.3105 2.04075 13.8255 3.75 14.1743V16.5C3.75 16.7768 3.90225 17.031 4.146 17.1615C4.257 17.2208 4.3785 17.25 4.5 17.25C4.6455 17.25 4.79025 17.2073 4.91625 17.124L9.22726 14.25H13.5C15.5678 14.25 17.25 12.5678 17.25 10.5V4.5C17.25 2.43225 15.5678 0.75 13.5 0.75ZM8.58376 12.876L5.25 15.0983V13.5C5.25 13.086 4.914 12.75 4.5 12.75C3.2595 12.75 2.25 11.7405 2.25 10.5V4.5C2.25 3.2595 3.2595 2.25 4.5 2.25H13.5C14.7405 2.25 15.75 3.2595 15.75 4.5V10.5C15.75 11.7405 14.7405 12.75 13.5 12.75H9.00001C8.94751 12.7493 8.87251 12.7545 8.78701 12.78C8.69701 12.8063 8.62876 12.8453 8.58376 12.876V12.876Z" fill="#686971"/>
<path d="M13.5 5.25H4.5C4.086 5.25 3.75 5.586 3.75 6C3.75 6.414 4.086 6.75 4.5 6.75H13.5C13.914 6.75 14.25 6.414 14.25 6C14.25 5.586 13.914 5.25 13.5 5.25Z" fill="#686971"/>
<path d="M12 8.25H6C5.586 8.25 5.25 8.586 5.25 9C5.25 9.414 5.586 9.75 6 9.75H12C12.414 9.75 12.75 9.414 12.75 9C12.75 8.586 12.414 8.25 12 8.25Z" fill="#686971"/>
</svg>
