<svg width="10" height="8" viewBox="0 0 10 8" fill="none" xmlns="http://www.w3.org/2000/svg">
<path opacity="0.6" d="M4.86593 0.666716C3.21432 0.666716 1.6813 1.31514 0.531989 2.46575C0.267088 2.73065 0.267088 3.14413 0.531989 3.40902C0.79689 3.67392 1.21037 3.67392 1.47526 3.40902C2.32984 2.55444 3.56914 2.05226 4.86599 2.05226H4.89593C6.19278 2.05226 7.40212 2.55326 8.25658 3.40902C8.52149 3.67392 8.96374 3.67392 9.19985 3.40902C9.31733 3.29154 9.40602 3.11417 9.40602 2.93679C9.40602 2.75943 9.34728 2.58321 9.19985 2.46457C8.0792 1.34507 6.48751 0.666687 4.86592 0.666687L4.86593 0.666716Z" fill="white"/>
<path opacity="0.6" d="M7.4022 5.20675C7.6671 4.94185 7.6671 4.52837 7.4022 4.26348C6.04544 2.90672 3.65795 2.90672 2.30107 4.26348C2.18359 4.38096 2.09491 4.55833 2.09491 4.73571C2.09491 4.91308 2.15365 5.08929 2.30107 5.20793C2.56597 5.47283 3.00823 5.47283 3.24434 5.20793C4.09892 4.35335 5.57315 4.35335 6.42897 5.20793C6.72382 5.47283 7.16609 5.47283 7.4022 5.20678V5.20675Z" fill="white"/>
<path opacity="0.6" d="M3.8338 6.79977C3.8338 7.38946 4.30603 7.86169 4.89572 7.86169C5.48541 7.86169 5.95763 7.38946 5.95763 6.79977C5.95763 6.21008 5.48541 5.73785 4.89572 5.73785C4.27607 5.7678 3.8338 6.23886 3.8338 6.79977V6.79977Z" fill="white"/>
</svg>
