<svg xmlns="http://www.w3.org/2000/svg" width="44" height="44" viewBox="0 0 44 44">
  <g id="man" transform="translate(0 0.091)">
    <path id="Path_16" data-name="Path 16" d="M22,0A22,22,0,1,1,0,22,22,22,0,0,1,22,0Z" transform="translate(0 -0.091)" fill="#e0e0e0"/>
    <g id="Group_6" data-name="Group 6" transform="translate(4.879 29.201)">
      <path id="Path_6" data-name="Path 6" d="M253.006,362.8c-.034,0-.069.034-.1.034s-.069-.034-.1-.034Z" transform="translate(-235.962 -360.566)" fill="#84dbff"/>
      <path id="Path_7" data-name="Path 7" d="M90.681,343.432a21.807,21.807,0,0,1-33.881,0c2.852-3.814,7.216-5.7,10.79-6.632a11.989,11.989,0,0,0,.928,5.223c1.2-2.749,5.223-2.99,5.223-2.99s4.02.241,5.189,2.99a11.468,11.468,0,0,0,.928-5.223C83.465,337.728,87.864,339.618,90.681,343.432Z" transform="translate(-56.8 -336.8)" fill="#84dbff"/>
    </g>
    <path id="Path_8" data-name="Path 8" d="M206.628,297.74v.034c0,.344-.172,2.543-4.811,4.3h-.206c-4.639-1.753-4.811-3.952-4.811-4.3v-.034a6.033,6.033,0,0,1,.206-1.34c1.34,1.684,2.955,2.818,4.708,2.818s3.368-1.134,4.708-2.818A6.035,6.035,0,0,1,206.628,297.74Z" transform="translate(-179.894 -270.669)" fill="#fff"/>
    <g id="Group_7" data-name="Group 7" transform="translate(15.638 27.071)">
      <path id="Path_9" data-name="Path 9" d="M258.914,312s.241,2.474-4.914,4.4c0,0,4.02.241,5.189,2.99C259.258,319.457,261.56,313.478,258.914,312Z" transform="translate(-247.817 -312)" fill="#54c0eb"/>
      <path id="Path_10" data-name="Path 10" d="M183.3,312c-2.646,1.478-.344,7.457-.275,7.354,1.2-2.749,5.189-2.99,5.189-2.99C183.058,314.474,183.3,312,183.3,312Z" transform="translate(-182.03 -312)" fill="#54c0eb"/>
    </g>
    <g id="Group_8" data-name="Group 8" transform="translate(12.736 9.556)">
      <path id="Path_11" data-name="Path 11" d="M186.625,116.932a9.781,9.781,0,0,1-2.783,5.635,6.65,6.65,0,0,1-.928.79l-.55-1.752h-5.91l-.55,1.752c-1.1-.825-3.4-3.127-3.436-5.292-.962-12.336,8.488-9.725,8.488-9.725C187.313,107.895,187.107,113.5,186.625,116.932Z" transform="translate(-170.325 -108.11)" fill="#fff"/>
      <path id="Path_12" data-name="Path 12" d="M334.153,201.7a3.515,3.515,0,0,1-1.752,1.546,14.586,14.586,0,0,0,.618-1.718v-.034l.412-1.546H333.4c.137-.515.275-1.031.378-1.546a.977.977,0,0,1,.412.137C334.943,199.019,334.909,200.427,334.153,201.7Z" transform="translate(-316.58 -190.644)" fill="#fff"/>
      <path id="Path_13" data-name="Path 13" d="M150.6,204.342a3.515,3.515,0,0,1-1.752-1.546c-.79-1.271-.79-2.68-.034-3.127.069-.034.1-.069.172-.069a23.4,23.4,0,0,0,1,3.058A16.628,16.628,0,0,0,150.6,204.342Z" transform="translate(-148.249 -191.74)" fill="#fff"/>
    </g>
    <path id="SVGCleanerId_0" d="M157.561,39.326c.275-3.161-4.742-2.955-4.742-2.955a9.718,9.718,0,0,0-8.419,8.178l1.031-1.237c-1.615,3.539.825,9.622,1.031,10.1,1.271,4.227,4.089,8.11,7.354,8.11s6.082-3.883,7.354-8.11h0V53.38c.137-.515.275-1.031.378-1.546h-.034c.687-2.749,1.443-5.532,1.443-5.532C164.914,36.44,157.561,39.326,157.561,39.326Zm3.471,12.027a9.781,9.781,0,0,1-2.783,5.635,9.464,9.464,0,0,1-.928.79l-.55-1.718h-5.91l-.55,1.752a10.8,10.8,0,0,1-2.783-3.264,7.3,7.3,0,0,1-.653-2.027c-.962-12.336,8.488-9.725,8.488-9.725C161.719,42.316,161.513,47.917,161.031,51.353Z" transform="translate(-131.995 -32.976)" fill="#324a5e"/>
    <g id="Group_9" data-name="Group 9" transform="translate(12.405 3.392)">
      <path id="SVGCleanerId_0_1_" d="M157.561,39.326c.275-3.161-4.742-2.955-4.742-2.955a9.718,9.718,0,0,0-8.419,8.178l1.031-1.237c-1.615,3.539.825,9.622,1.031,10.1,1.271,4.227,4.089,8.11,7.354,8.11s6.082-3.883,7.354-8.11h0V53.38c.137-.515.275-1.031.378-1.546h-.034c.687-2.749,1.443-5.532,1.443-5.532C164.914,36.44,157.561,39.326,157.561,39.326Zm3.471,12.027a9.781,9.781,0,0,1-2.783,5.635,9.464,9.464,0,0,1-.928.79l-.55-1.718h-5.91l-.55,1.752a10.8,10.8,0,0,1-2.783-3.264,7.3,7.3,0,0,1-.653-2.027c-.962-12.336,8.488-9.725,8.488-9.725C161.719,42.316,161.513,47.917,161.031,51.353Z" transform="translate(-144.4 -36.368)" fill="#324a5e"/>
    </g>
    <path id="Path_14" data-name="Path 14" d="M157.561,39.326c.275-3.161-4.742-2.955-4.742-2.955a9.718,9.718,0,0,0-8.419,8.178l1.031-1.237c-1.615,3.539.825,9.622,1.031,10.1,1.271,4.227,4.089,8.11,7.354,8.11s6.082-3.883,7.354-8.11h0V53.38c.137-.515.275-1.031.378-1.546h-.034c.687-2.749,1.443-5.532,1.443-5.532C164.914,36.44,157.561,39.326,157.561,39.326Zm3.471,12.027a9.781,9.781,0,0,1-2.783,5.635,9.464,9.464,0,0,1-.928.79l-.55-1.718h-5.91l-.55,1.752c-1.1-.825-3.4-3.127-3.436-5.292-.962-12.336,8.488-9.725,8.488-9.725C161.719,42.316,161.513,47.917,161.031,51.353Z" transform="translate(-131.995 -32.976)" fill="#324a5e"/>
    <path id="Path_15" data-name="Path 15" d="M226,279.2a3.245,3.245,0,0,0,2.405,1.1,3.127,3.127,0,0,0,2.405-1.1Z" transform="translate(-206.585 -254.947)" fill="#fff"/>
  </g>
</svg>
