<svg width="16" height="17" viewBox="0 0 16 17" fill="none" xmlns="http://www.w3.org/2000/svg">
<path opacity="0.6" d="M8 13.5749C3.63394 13.5749 0.279534 8.67637 0.1198 8.46339C-0.0399334 8.25042 -0.0399334 7.93095 0.1198 7.71797C0.279534 7.50499 3.63394 2.5 8 2.5C12.3661 2.5 15.7205 7.50499 15.8802 7.71797C16.0399 7.93095 16.0399 8.25042 15.8802 8.46339C15.7205 8.67637 12.3661 13.5749 8 13.5749ZM1.5574 8.09068C2.40932 9.15557 5.0183 12.1905 8 12.1905C10.9817 12.1905 13.6439 9.15557 14.4426 8.09068C13.5907 6.97255 10.9817 3.83111 8 3.83111C5.0183 3.83111 2.35607 6.97255 1.5574 8.09068Z" fill="#032D23"/>
<path opacity="0.6" d="M7.99998 11.3919C6.13642 11.3919 4.64557 9.90101 4.64557 8.03745C4.64557 6.17389 6.13642 4.68304 7.99998 4.68304C9.86354 4.68304 11.3544 6.17389 11.3544 8.03745C11.3544 9.90101 9.86354 11.3919 7.99998 11.3919ZM7.99998 6.01416C6.88184 6.01416 5.97668 6.91932 5.97668 8.03745C5.97668 9.15559 6.88184 10.0607 7.99998 10.0607C9.11811 10.0607 10.0233 9.15559 10.0233 8.03745C10.0233 6.91932 9.11811 6.01416 7.99998 6.01416Z" fill="#032D23"/>
</svg>
