<svg width="3" height="10" viewBox="0 0 3 10" fill="none" xmlns="http://www.w3.org/2000/svg">
<path d="M1.07955 9.76349C0.527261 9.76349 0.0795455 9.31578 0.0795455 8.76349V4.12713C0.0795455 3.57485 0.527261 3.12713 1.07955 3.12713H1.19744C1.74973 3.12713 2.19744 3.57485 2.19744 4.12713V8.7635C2.19744 9.31578 1.74973 9.76349 1.19744 9.76349H1.07955ZM1.14347 2.14276C0.828599 2.14276 0.558475 2.03835 0.333097 1.82955C0.111032 1.61742 0 1.36387 0 1.06889C0 0.777225 0.111032 0.526989 0.333097 0.318182C0.558475 0.106061 0.828599 0 1.14347 0C1.45833 0 1.7268 0.106061 1.94886 0.318182C2.17424 0.526989 2.28693 0.777225 2.28693 1.06889C2.28693 1.36387 2.17424 1.61742 1.94886 1.82955C1.7268 2.03835 1.45833 2.14276 1.14347 2.14276Z" fill="#FB0000"/>
</svg>
