<svg width="12" height="12" viewBox="0 0 12 12" fill="none" xmlns="http://www.w3.org/2000/svg">
<path d="M10.8552 10.145L9.0002 8.30501C9.72025 7.40722 10.0689 6.26766 9.9746 5.12066C9.88026 3.97366 9.35003 2.9064 8.49296 2.13834C7.63588 1.37027 6.5171 0.959768 5.36666 0.991248C4.21622 1.02273 3.12156 1.49379 2.30777 2.30758C1.49398 3.12137 1.02291 4.21603 0.991432 5.36647C0.959951 6.51692 1.37045 7.6357 2.13852 8.49277C2.90659 9.34985 3.97385 9.88007 5.12085 9.97442C6.26785 10.0688 7.4074 9.72006 8.3052 9.00001L10.1452 10.84C10.1917 10.8869 10.247 10.9241 10.3079 10.9495C10.3688 10.9748 10.4342 10.9879 10.5002 10.9879C10.5662 10.9879 10.6316 10.9748 10.6925 10.9495C10.7534 10.9241 10.8087 10.8869 10.8552 10.84C10.9453 10.7468 10.9957 10.6222 10.9957 10.4925C10.9957 10.3628 10.9453 10.2382 10.8552 10.145ZM5.5002 9.00001C4.80796 9.00001 4.13127 8.79474 3.5557 8.41016C2.98013 8.02557 2.53152 7.47895 2.26662 6.83941C2.00171 6.19986 1.9324 5.49613 2.06745 4.8172C2.2025 4.13826 2.53584 3.51462 3.02532 3.02514C3.51481 2.53566 4.13845 2.20231 4.81738 2.06726C5.49631 1.93222 6.20005 2.00153 6.83959 2.26643C7.47913 2.53134 8.02576 2.97995 8.41034 3.55552C8.79493 4.13109 9.0002 4.80778 9.0002 5.50001C9.0002 6.42827 8.63145 7.31851 7.97507 7.97489C7.31869 8.63126 6.42845 9.00001 5.5002 9.00001Z" fill="black"/>
</svg>
