<svg width="18" height="18" viewBox="0 0 18 18" fill="none" xmlns="http://www.w3.org/2000/svg">
<path d="M17.625 9C17.625 13.7635 13.7635 17.625 9 17.625C4.23654 17.625 0.375 13.7635 0.375 9C0.375 4.23654 4.23654 0.375 9 0.375C13.7635 0.375 17.625 4.23654 17.625 9Z" fill="#BFBFBF" stroke="#BFBFBF" stroke-width="0.75"/>
<path fill-rule="evenodd" clip-rule="evenodd" d="M6.08907 6.08894C5.85057 6.32744 5.85057 6.71413 6.08907 6.95262L8.23673 9.10029L6.08907 11.248C5.85057 11.4865 5.85057 11.8731 6.08907 12.1116C6.32757 12.3501 6.71425 12.3501 6.95275 12.1116L9.10041 9.96397L11.2481 12.1116C11.4866 12.3501 11.8733 12.3501 12.1118 12.1116C12.3503 11.8731 12.3503 11.4865 12.1118 11.248L9.96409 9.10029L12.1118 6.95262C12.3503 6.71413 12.3503 6.32744 12.1118 6.08894C11.8733 5.85045 11.4866 5.85045 11.2481 6.08894L9.10041 8.23661L6.95275 6.08894C6.71425 5.85045 6.32757 5.85045 6.08907 6.08894Z" fill="white"/>
</svg>
