<svg width="24" height="24" viewBox="0 0 24 24" fill="none" xmlns="http://www.w3.org/2000/svg">
<path d="M0.5 12C0.5 5.65934 5.65934 0.5 12 0.5C18.3407 0.5 23.5 5.65934 23.5 12C23.5 18.3407 18.3407 23.5 12 23.5C5.65934 23.5 0.5 18.3407 0.5 12Z" fill="white" stroke="#04C35C"/>
<path d="M16.4998 7.75739L10.3286 13.9285L7.50023 11.1001C7.07427 10.6741 6.3835 10.674 5.95747 11.1C5.53143 11.526 5.53143 12.2167 5.95747 12.6428L9.55718 16.2426C9.76176 16.4472 10.0392 16.5622 10.3285 16.5622C10.3286 16.5622 10.3285 16.5622 10.3286 16.5622C10.6179 16.5622 10.8954 16.4472 11.0999 16.2427L18.0426 9.30022C18.4686 8.87419 18.4686 8.1835 18.0426 7.75746C17.6165 7.33142 16.9258 7.33135 16.4998 7.75739Z" fill="#04C35C"/>
</svg>
