
<svg width="16px" height="14px" viewBox="0 0 16 14" version="1.1" xmlns="http://www.w3.org/2000/svg" xmlns:xlink="http://www.w3.org/1999/xlink">
    <g id="Page-1" stroke="none" stroke-width="1" fill="none" fill-rule="evenodd">
        <g id="trip" transform="translate(0.000732, 0.715210)" fill="#7BB0FF" fill-rule="nonzero">
            <path d="M15.9936676,9.59889 L15.9936676,6.9135 C15.9936676,6.51354 15.8796676,6.11359 15.7080676,5.77077 L13.9983676,2.85682 C13.8269676,2.514 13.4270676,2.28545 13.0271676,2.28545 L10.4559676,2.28545 C10.0560676,2.28545 9.71317758,2.62827 9.71317758,3.02823 L9.71317758,9.14179 L9.14181758,9.14179 L9.14181758,1.14273 C9.14181758,0.51423 8.62765758,-8.8817842e-16 7.99908758,-8.8817842e-16 L-8.8817842e-16,-8.8817842e-16 L-8.8817842e-16,10.28459 L1.71408758,10.28459 C1.99976758,9.31319 2.85681758,8.57049 3.94233758,8.57049 C5.02799758,8.57049 5.94210758,9.31319 6.17072758,10.28459 L10.3416676,10.28459 C10.6273676,9.31319 11.4844676,8.57049 12.5699676,8.57049 C13.4841676,8.57049 14.2268676,9.08469 14.5697676,9.82749 C14.7411676,10.11309 15.0225676,10.28459 15.3082676,10.28459 C15.7080676,10.28459 16.0509676,9.94169 15.9936676,9.59889 Z M10.8558676,6.285 L10.8558676,3.42818 L13.1413676,3.42818 L14.7982676,6.285 L10.8558676,6.285 Z" id="Shape"></path>
            <path d="M12.5700676,9.14179 C11.5987676,9.14179 10.8559676,9.88459 10.8559676,10.85589 C10.8559676,11.82719 11.5987676,12.56999 12.5700676,12.56999 C13.5413676,12.56999 14.2841676,11.82719 14.2841676,10.85589 C14.2841676,9.88459 13.5413676,9.14179 12.5700676,9.14179 Z M12.5700676,11.65579 C12.1129676,11.65579 11.7701676,11.31299 11.7701676,10.85589 C11.7701676,10.39879 12.1129676,10.05599 12.5700676,10.05599 C13.0271676,10.05599 13.3698676,10.39879 13.3698676,10.85589 C13.3698676,11.31299 13.0271676,11.65579 12.5700676,11.65579 Z" id="Shape"></path>
            <path d="M3.99997758,9.14179 C3.02869758,9.14179 2.28588758,9.88459 2.28588758,10.85589 C2.28588758,11.82719 3.02869758,12.56999 3.99997758,12.56999 C4.97125758,12.56999 5.71406758,11.82719 5.71406758,10.85589 C5.71406758,9.88459 4.97125758,9.14179 3.99997758,9.14179 Z M3.99997758,11.65579 C3.54284758,11.65579 3.20013758,11.31299 3.20013758,10.85589 C3.20013758,10.39879 3.54288758,10.05599 3.99997758,10.05599 C4.45706758,10.05599 4.79981758,10.39879 4.79981758,10.85589 C4.79981758,11.31299 4.45710758,11.65579 3.99997758,11.65579 Z" id="Shape"></path>
        </g>
    </g>
</svg>