<svg width="31" height="18" viewBox="0 0 31 18" fill="none" xmlns="http://www.w3.org/2000/svg">
<path d="M0.371804 18V0.545454H7.58203C8.88885 0.545454 10.0167 0.801136 10.9656 1.3125C11.9201 1.81818 12.6559 2.52557 13.1729 3.43466C13.69 4.33807 13.9485 5.3892 13.9485 6.58807C13.9485 7.79261 13.6843 8.84659 13.1559 9.75C12.6332 10.6477 11.886 11.3437 10.9144 11.8381C9.94283 12.3324 8.78942 12.5795 7.45419 12.5795H3.00533V9.25568H6.6701C7.30646 9.25568 7.83771 9.14489 8.26385 8.9233C8.69567 8.7017 9.02237 8.39205 9.24396 7.99432C9.46555 7.59091 9.57635 7.12216 9.57635 6.58807C9.57635 6.04829 9.46555 5.58239 9.24396 5.19034C9.02237 4.79261 8.69567 4.4858 8.26385 4.26989C7.83203 4.05398 7.30078 3.94602 6.6701 3.94602H4.59055V18H0.371804ZM15.457 3.97159V0.545454H30.2099V3.97159H24.9173V18H20.7582V3.97159H15.457Z" fill="white"/>
</svg>
