<svg width="18" height="18" viewBox="0 0 18 18" fill="none" xmlns="http://www.w3.org/2000/svg">
<path d="M14.7656 2.00391H12.8236C12.6161 1.37187 12.0208 0.914062 11.3203 0.914062H10.4407C10.1924 0.370477 9.64392 0 9.01758 0H8.98242C8.35608 0 7.80761 0.370477 7.55926 0.914062H6.67969C5.97916 0.914062 5.3839 1.37187 5.17644 2.00391H3.23438C2.94314 2.00391 2.70703 2.24002 2.70703 2.53125V17.4727C2.70703 17.7639 2.94314 18 3.23438 18H14.7656C15.0569 18 15.293 17.7639 15.293 17.4727V2.53125C15.293 2.24002 15.0569 2.00391 14.7656 2.00391ZM6.15234 2.49609C6.15234 2.20532 6.38891 1.96875 6.67969 1.96875H7.95284C8.22013 1.96875 8.44513 1.76878 8.47652 1.50335C8.50679 1.24755 8.72427 1.05469 8.98242 1.05469H9.01758C9.27573 1.05469 9.49321 1.24755 9.52348 1.50335C9.55487 1.76878 9.77991 1.96875 10.0472 1.96875H11.3203C11.6111 1.96875 11.8477 2.20532 11.8477 2.49609V3.02344H6.15234V2.49609ZM14.2383 16.9453H3.76172V3.05859H5.09766V3.55078C5.09766 3.84202 5.33377 4.07812 5.625 4.07812H12.375C12.6662 4.07812 12.9023 3.84202 12.9023 3.55078V3.05859H14.2383V16.9453Z" fill="white"/>
<path d="M12.6563 11.1548H8.51156C7.81262 11.1808 7.81314 12.1838 8.51156 12.2095H12.6563C13.3552 12.1836 13.3547 11.1805 12.6563 11.1548Z" fill="white"/>
<path d="M12.6563 14.3049H8.51156C7.81262 14.3308 7.81314 15.3339 8.51156 15.3596H12.6563C13.3552 15.3336 13.3547 14.3305 12.6563 14.3049Z" fill="white"/>
<path d="M6.76379 10.7872C6.55788 10.5813 6.22397 10.5813 6.01802 10.7872L5.86885 10.9364L5.71968 10.7872C5.51377 10.5813 5.17986 10.5813 4.97392 10.7872C4.76797 10.9932 4.76797 11.3271 4.97392 11.533L5.12308 11.6822L4.97392 11.8313C4.76797 12.0373 4.76797 12.3712 4.97392 12.5771C5.17986 12.7831 5.51374 12.7831 5.71968 12.5771L5.86885 12.4279L6.01802 12.5771C6.22397 12.7831 6.55784 12.7831 6.76379 12.5771C6.96973 12.3712 6.96973 12.0373 6.76379 11.8313L6.61462 11.6822L6.76379 11.533C6.96973 11.3271 6.96973 10.9932 6.76379 10.7872Z" fill="white"/>
<path d="M6.76379 13.9373C6.55788 13.7313 6.22397 13.7314 6.01802 13.9373L5.86885 14.0864L5.71968 13.9373C5.51381 13.7313 5.1799 13.7313 4.97392 13.9373C4.76797 14.1432 4.76797 14.4771 4.97392 14.683L5.12308 14.8322L4.97392 14.9814C4.76797 15.1873 4.76797 15.5212 4.97392 15.7271C5.17983 15.9331 5.51374 15.933 5.71968 15.7271L5.86885 15.578L6.01802 15.7271C6.22393 15.9331 6.55784 15.9331 6.76379 15.7271C6.96973 15.5212 6.96973 15.1873 6.76379 14.9814L6.61462 14.8322L6.76379 14.683C6.96973 14.4771 6.96973 14.1432 6.76379 13.9373Z" fill="white"/>
<path d="M9 9.5745C9.29123 9.5745 9.52734 9.33839 9.52734 9.04715V9.03667C9.5014 8.33773 8.49836 8.33826 8.47266 9.03667V9.04715C8.47266 9.33839 8.70877 9.5745 9 9.5745Z" fill="white"/>
<path d="M9 7.77776C9.29123 7.77776 9.52734 7.54165 9.52734 7.25042V5.65865C9.5014 4.95971 8.49836 4.96024 8.47266 5.65865V7.25042C8.47266 7.54168 8.70877 7.77776 9 7.77776Z" fill="white"/>
</svg>
