<svg width="18" height="18" viewBox="0 0 18 18" fill="none" xmlns="http://www.w3.org/2000/svg">
<path d="M13.6758 1.40625H11.0241C10.7338 0.587769 9.95183 0 9.03516 0C8.11848 0 7.33653 0.587769 7.04622 1.40625H4.35938C3.1962 1.40625 2.25 2.35245 2.25 3.51562V15.8906C2.25 17.0538 3.1962 18 4.35938 18H13.678C14.8399 17.9988 15.7852 17.0526 15.7852 15.8906V3.51562C15.7852 2.35245 14.839 1.40625 13.6758 1.40625ZM8.33203 2.8125V2.10938C8.33203 1.72169 8.64748 1.40625 9.03516 1.40625C9.42284 1.40625 9.73828 1.72169 9.73828 2.10938V2.8125H11.1445V4.18359H6.92578V2.8125H8.33203ZM14.3789 15.8906C14.3789 16.2779 14.0637 16.5933 13.6773 16.5938H4.35938C3.97169 16.5938 3.65625 16.2783 3.65625 15.8906V3.51562C3.65625 3.12794 3.97169 2.8125 4.35938 2.8125H5.51953V5.58984H12.5508V2.8125H13.6758C14.0635 2.8125 14.3789 3.12794 14.3789 3.51562V15.8906ZM11.7143 8.08731L12.7543 9.03378L8.25114 13.982L5.27673 11.105L6.25452 10.0942L8.18687 11.9633L11.7143 8.08731Z" fill="white"/>
</svg>
