<svg width="16" height="16" viewBox="0 0 16 16" fill="none" xmlns="http://www.w3.org/2000/svg">
<path d="M5.09091 8.72727H2.18182C1.60316 8.72727 1.04821 8.95714 0.63904 9.36631C0.229869 9.77548 0 10.3304 0 10.9091V13.8182C0 14.3968 0.229869 14.9518 0.63904 15.361C1.04821 15.7701 1.60316 16 2.18182 16H5.09091C5.66956 16 6.22452 15.7701 6.63369 15.361C7.04286 14.9518 7.27273 14.3968 7.27273 13.8182V10.9091C7.27273 10.3304 7.04286 9.77548 6.63369 9.36631C6.22452 8.95714 5.66956 8.72727 5.09091 8.72727ZM2.18182 14.5455C1.98893 14.5455 1.80395 14.4688 1.66756 14.3324C1.53117 14.1961 1.45455 14.0111 1.45455 13.8182V10.9091C1.45455 10.7162 1.53117 10.5312 1.66756 10.3948C1.80395 10.2584 1.98893 10.1818 2.18182 10.1818H5.09091C5.28379 10.1818 5.46878 10.2584 5.60517 10.3948C5.74156 10.5312 5.81818 10.7162 5.81818 10.9091V13.8182C5.81818 14.0111 5.74156 14.1961 5.60517 14.3324C5.46878 14.4688 5.28379 14.5455 5.09091 14.5455H2.18182ZM13.8182 8.72727H10.9091C10.3304 8.72727 9.77548 8.95714 9.36631 9.36631C8.95714 9.77548 8.72727 10.3304 8.72727 10.9091V13.8182C8.72727 14.3968 8.95714 14.9518 9.36631 15.361C9.77548 15.7701 10.3304 16 10.9091 16H13.8182C14.3968 16 14.9518 15.7701 15.361 15.361C15.7701 14.9518 16 14.3968 16 13.8182V10.9091C16 10.3304 15.7701 9.77548 15.361 9.36631C14.9518 8.95714 14.3968 8.72727 13.8182 8.72727ZM10.9091 14.5455C10.7162 14.5455 10.5312 14.4688 10.3948 14.3324C10.2584 14.1961 10.1818 14.0111 10.1818 13.8182V10.9091C10.1818 10.7162 10.2584 10.5312 10.3948 10.3948C10.5312 10.2584 10.7162 10.1818 10.9091 10.1818H13.8182C14.0111 10.1818 14.1961 10.2584 14.3324 10.3948C14.4688 10.5312 14.5455 10.7162 14.5455 10.9091V13.8182C14.5455 14.0111 14.4688 14.1961 14.3324 14.3324C14.1961 14.4688 14.0111 14.5455 13.8182 14.5455H10.9091ZM5.09091 0H2.18182C1.60316 0 1.04821 0.229869 0.63904 0.639039C0.229869 1.04821 0 1.60316 0 2.18182V5.09091C0 5.66956 0.229869 6.22452 0.63904 6.63369C1.04821 7.04286 1.60316 7.27273 2.18182 7.27273H5.09091C5.66956 7.27273 6.22452 7.04286 6.63369 6.63369C7.04286 6.22452 7.27273 5.66956 7.27273 5.09091V2.18182C7.27273 1.60316 7.04286 1.04821 6.63369 0.639039C6.22452 0.229869 5.66956 0 5.09091 0ZM2.18182 5.81818C1.98893 5.81818 1.80395 5.74156 1.66756 5.60517C1.53117 5.46878 1.45455 5.28379 1.45455 5.09091V2.18182C1.45455 1.98893 1.53117 1.80395 1.66756 1.66756C1.80395 1.53117 1.98893 1.45455 2.18182 1.45455H5.09091C5.28379 1.45455 5.46878 1.53117 5.60517 1.66756C5.74156 1.80395 5.81818 1.98893 5.81818 2.18182V5.09091C5.81818 5.28379 5.74156 5.46878 5.60517 5.60517C5.46878 5.74156 5.28379 5.81818 5.09091 5.81818H2.18182ZM13.8182 0H10.9091C10.3304 0 9.77548 0.229869 9.36631 0.639039C8.95714 1.04821 8.72727 1.60316 8.72727 2.18182V5.09091C8.72727 5.66956 8.95714 6.22452 9.36631 6.63369C9.77548 7.04286 10.3304 7.27273 10.9091 7.27273H13.8182C14.3968 7.27273 14.9518 7.04286 15.361 6.63369C15.7701 6.22452 16 5.66956 16 5.09091V2.18182C16 1.60316 15.7701 1.04821 15.361 0.639039C14.9518 0.229869 14.3968 0 13.8182 0ZM10.9091 5.81818C10.7162 5.81818 10.5312 5.74156 10.3948 5.60517C10.2584 5.46878 10.1818 5.28379 10.1818 5.09091V2.18182C10.1818 1.98893 10.2584 1.80395 10.3948 1.66756C10.5312 1.53117 10.7162 1.45455 10.9091 1.45455H13.8182C14.0111 1.45455 14.1961 1.53117 14.3324 1.66756C14.4688 1.80395 14.5455 1.98893 14.5455 2.18182V5.09091C14.5455 5.28379 14.4688 5.46878 14.3324 5.60517C14.1961 5.74156 14.0111 5.81818 13.8182 5.81818H10.9091Z" fill="white"/>
</svg>
