<?xml version="1.0" encoding="UTF-8"?>
<svg fill="#FFFFFF" width="100pt" height="100pt" version="1.1" viewBox="0 0 100 100" xmlns="http://www.w3.org/2000/svg">
 <g>
  <path d="m60.938 32.812c0.41406 0 0.8125-0.16406 1.1055-0.45703s0.45703-0.69141 0.45703-1.1055v-18.75c0-0.41406-0.16406-0.8125-0.45703-1.1055s-0.69141-0.45703-1.1055-0.45703h-41.094l-0.35938 0.17188h-0.15625c-0.10547 0.10938-0.20312 0.23047-0.28125 0.35938-0.039063 0.050781-0.078125 0.10156-0.10938 0.15625-0.13281 0.26953-0.19922 0.57031-0.1875 0.875v68.75c0 0.19141 0.039062 0.38281 0.10938 0.5625l0.09375 0.17188c0.058594 0.10938 0.125 0.21484 0.20312 0.3125l0.17188 0.14062c0.082031 0.078125 0.17578 0.14453 0.28125 0.1875l0.21875 0.09375h0.14062l28.125 6.25 0.34375 0.09375c0.41406 0 0.8125-0.16406 1.1055-0.45703s0.45703-0.69141 0.45703-1.1055v-4.6875h10.938c0.41406 0 0.8125-0.16406 1.1055-0.45703s0.45703-0.69141 0.45703-1.1055v-18.75c0-0.86328-0.69922-1.5625-1.5625-1.5625s-1.5625 0.69922-1.5625 1.5625v17.188h-9.375v-60.938c0.019531-0.74609-0.49219-1.3984-1.2188-1.5625l-14.234-3.125h24.828v17.188c0 0.41406 0.16406 0.8125 0.45703 1.1055s0.69141 0.45703 1.1055 0.45703zm-14.062 46.875v5.8594l-12.328-2.7344-12.672-2.8125v-65.547l25 5.5469z"/>
  <path d="m81.641 50.078h-23.688c-0.86328 0-1.5625-0.69922-1.5625-1.5625s0.69922-1.5625 1.5625-1.5625h19.922l-5.2344-5.2188c-0.29688-0.29297-0.46094-0.69141-0.46094-1.1094s0.16406-0.81641 0.46094-1.1094c0.60938-0.60547 1.5938-0.60547 2.2031 0l7.9688 7.9062c0.44141 0.44922 0.56641 1.1172 0.32422 1.6953-0.24219 0.57812-0.80469 0.95703-1.4336 0.96094z"/>
  <path d="m73.75 57.984c-0.63672 0.003906-1.207-0.37891-1.4531-0.96484-0.24219-0.58594-0.10547-1.2617 0.34375-1.707l7.8125-7.8125c0.29297-0.29688 0.69141-0.46094 1.1094-0.46094s0.81641 0.16406 1.1094 0.46094c0.60547 0.60938 0.60547 1.5938 0 2.2031l-7.8281 7.8125c-0.28906 0.29297-0.67969 0.46094-1.0938 0.46875z"/>
  <path d="m42.188 51.562c-0.86328 0-1.5625-0.69922-1.5625-1.5625v-3.9531c0-0.86328 0.69922-1.5625 1.5625-1.5625s1.5625 0.69922 1.5625 1.5625v3.9531c0 0.41406-0.16406 0.8125-0.45703 1.1055s-0.69141 0.45703-1.1055 0.45703z"/>
 </g>
</svg>
