<svg width="20" height="20" viewBox="0 0 20 20" fill="none" xmlns="http://www.w3.org/2000/svg">
<path d="M17.42 5.4691L14.5579 8.33113C14.7854 8.85078 14.9045 9.41773 14.9045 9.988C14.9045 10.5584 14.7854 11.1253 14.5579 11.6449L17.4199 14.5072C18.0053 15.0928 18.0053 16.0455 17.4199 16.631C17.1362 16.9146 16.7591 17.0708 16.358 17.0708C15.9569 17.0708 15.5798 16.9146 15.2961 16.6309L12.4341 13.7687C11.9146 13.9962 11.3477 14.1154 10.7772 14.1154C10.2069 14.1154 9.63984 13.9962 9.12027 13.7687L6.25816 16.6308C5.97445 16.9144 5.59734 17.0706 5.19625 17.0706C4.79516 17.0706 4.41805 16.9144 4.13434 16.6307C3.54879 16.0452 3.54883 15.0924 4.13434 14.5069L6.99649 11.6449C6.76902 11.1252 6.64984 10.5582 6.64984 9.988C6.64984 9.41765 6.76906 8.85062 6.99649 8.33109L4.13441 5.46902C3.5491 4.88343 3.5491 3.93074 4.13449 3.34531C4.41816 3.06164 4.79531 2.90539 5.19641 2.90539C5.5975 2.90539 5.97465 3.06164 6.25832 3.34531L9.12031 6.2073C9.63996 5.97984 10.2069 5.86066 10.777 5.86066C11.3474 5.86066 11.9143 5.97984 12.4339 6.2073L15.2961 3.34535C15.5798 3.06168 15.9569 2.90543 16.358 2.90543C16.7591 2.90543 17.1362 3.06164 17.4198 3.34519C17.7036 3.62883 17.8599 4.00593 17.8599 4.40711C17.86 4.80824 17.7038 5.18539 17.42 5.4691ZM16.8427 3.92254C16.7132 3.79304 16.5411 3.72172 16.358 3.72172C16.175 3.72172 16.0029 3.793 15.8734 3.92254L12.8063 6.98941C12.7279 7.06785 12.6234 7.10894 12.5176 7.10894C12.4524 7.10894 12.3867 7.09336 12.3264 7.06136C11.8526 6.80992 11.3169 6.67703 10.7771 6.67703C10.2374 6.67703 9.70172 6.80996 9.22785 7.0614C9.06949 7.14543 8.87477 7.11629 8.74793 6.98949L5.68113 3.92261C5.55164 3.79312 5.37949 3.72179 5.19645 3.72179C5.01344 3.72179 4.84125 3.79316 4.7118 3.92261C4.44461 4.1898 4.44465 4.62465 4.7118 4.89191L7.77871 7.95883C7.90555 8.0857 7.93473 8.28043 7.85059 8.43882C7.59918 8.91246 7.46629 9.4482 7.46629 9.98808C7.46629 10.5278 7.59918 11.0635 7.85063 11.5374C7.93465 11.6957 7.90547 11.8905 7.77867 12.0173L4.71164 15.0842C4.44438 15.3514 4.44438 15.7863 4.7116 16.0536C4.84105 16.183 5.01324 16.2543 5.19629 16.2543C5.37934 16.2543 5.55152 16.183 5.68098 16.0536L8.74801 12.9866C8.87485 12.8598 9.06961 12.8306 9.22801 12.9147C9.70164 13.1662 10.2374 13.2991 10.7773 13.2991C11.3172 13.2991 11.8529 13.1662 12.3265 12.9147C12.485 12.8306 12.6798 12.8598 12.8065 12.9866L15.8734 16.0537C16.0029 16.1832 16.175 16.2545 16.3581 16.2545C16.5411 16.2545 16.7133 16.1832 16.8427 16.0537C17.11 15.7865 17.1099 15.3516 16.8427 15.0843L13.7759 12.0173C13.6491 11.8905 13.6199 11.6957 13.704 11.5373C13.9554 11.0636 14.0883 10.5279 14.0883 9.988C14.0883 9.44824 13.9555 8.9125 13.704 8.43867C13.62 8.28027 13.6492 8.08558 13.776 7.95875L16.8429 4.89183C16.9724 4.76238 17.0437 4.59019 17.0437 4.40715C17.0437 4.2241 16.9723 4.05199 16.8427 3.92254Z" fill="white"/>
<path d="M10.7771 10.7639C10.3495 10.7639 10.0016 10.4161 10.0016 9.98844C10.0016 9.56082 10.3495 9.21293 10.7771 9.21293C11.2047 9.21293 11.5526 9.56082 11.5526 9.98844C11.5526 10.4161 11.2047 10.7639 10.7771 10.7639Z" fill="white"/>
<path d="M10.7771 12.1517C9.5843 12.1517 8.61383 11.1813 8.61383 9.98845C8.61383 8.79564 9.5843 7.82517 10.7771 7.82517C11.9699 7.82517 12.9404 8.79564 12.9404 9.98845C12.9404 11.1813 11.9699 12.1517 10.7771 12.1517ZM10.7771 8.64154C10.0344 8.64154 9.43016 9.2458 9.43016 9.98849C9.43016 10.7312 10.0344 11.3354 10.7771 11.3354C11.5198 11.3354 12.1241 10.7312 12.1241 9.98849C12.124 9.24576 11.5198 8.64154 10.7771 8.64154Z" fill="white"/>
<path d="M18.7755 19.251H2.72242C2.04723 19.251 1.49793 18.7017 1.49793 18.0265V15.5919H0.82543C0.370273 15.5919 0 15.2216 0 14.7665V11.1716C0 10.7165 0.370273 10.3462 0.82543 10.3462H1.49793V9.6218H0.82543C0.370273 9.6218 0 9.25153 0 8.79638V5.20145C0 4.74634 0.370273 4.3761 0.82543 4.3761H1.49793V1.97349C1.49793 1.29829 2.04723 0.748993 2.72242 0.748993H18.7755C19.4507 0.748993 20 1.29829 20 1.97349V18.0265C20 18.7017 19.4507 19.251 18.7755 19.251ZM19.1837 1.97345C19.1837 1.74837 19.0006 1.56528 18.7755 1.56528H2.72242C2.49734 1.56528 2.31426 1.74837 2.31426 1.97345V4.78423C2.31426 5.00966 2.13152 5.19239 1.90609 5.19239H0.82543C0.820312 5.19239 0.816328 5.19638 0.816328 5.20145V8.79638C0.816328 8.80149 0.820312 8.80548 0.82543 8.80548H1.90609C2.13152 8.80548 2.31426 8.98821 2.31426 9.21364V10.7544C2.31426 10.9798 2.13152 11.1625 1.90609 11.1625H0.82543C0.820312 11.1625 0.816328 11.1665 0.816328 11.1716V14.7665C0.816328 14.7716 0.820312 14.7756 0.82543 14.7756H1.90609C2.13152 14.7756 2.31426 14.9583 2.31426 15.1838V18.0265C2.31426 18.2516 2.49734 18.4347 2.72242 18.4347H18.7755C19.0006 18.4347 19.1837 18.2516 19.1837 18.0265V1.97345Z" fill="white"/>
</svg>
